<svg width="22" height="22" fill="none" xmlns="http://www.w3.org/2000/svg"><path d="M19.25 1.375H11A1.376 1.376 0 009.625 2.75v6.875H2.75A1.376 1.376 0 001.375 11v9.625h19.25V2.75a1.376 1.376 0 00-1.375-1.375zM6.187 19.25v-4.813h2.75v4.813h-2.75zm13.063 0h-8.938v-5.5a.687.687 0 00-.687-.688H5.5a.687.687 0 00-.688.688v5.5H2.75V11H11V2.75h8.25v16.5z" fill="#FFDB48"/><path d="M12.375 5.5h1.375v1.375h-1.375V5.5zm4.125 0h1.375v1.375H16.5V5.5zm-4.125 4.125h1.375V11h-1.375V9.625zm4.125 0h1.375V11H16.5V9.625zm-4.125 4.125h1.375v1.375h-1.375V13.75zm4.125 0h1.375v1.375H16.5V13.75zM1.375 6.875h3.438V8.25H1.374V6.875zm5.5-5.5H8.25v3.438H6.875V1.374zM2.75 3.722l.972-.972 2.466 2.465-.973.973L2.75 3.721z" fill="#FFDB48"/></svg>