<svg width="22" height="22" fill="none" xmlns="http://www.w3.org/2000/svg"><path d="M1.375 15.125h19.25V16.5H1.375v-1.375zm0 2.75h19.25v1.375H1.375v-1.375zm15.125-11a1.375 1.375 0 100 2.75 1.375 1.375 0 000-2.75zM11 11a2.75 2.75 0 110-5.5 2.75 2.75 0 010 5.5zm0-4.125a1.375 1.375 0 100 2.75 1.375 1.375 0 000-2.75zm-5.5 0a1.375 1.375 0 100 2.75 1.375 1.375 0 000-2.75z" fill="#FFDB48"/><path d="M19.25 13.75H2.75a1.379 1.379 0 01-1.375-1.375v-8.25A1.378 1.378 0 012.75 2.75h16.5a1.379 1.379 0 011.375 1.375v8.25a1.377 1.377 0 01-1.375 1.375zm0-9.625H2.75v8.25h16.5v-8.25z" fill="#FFDB48"/></svg>