<svg width="70" height="42" fill="none" xmlns="http://www.w3.org/2000/svg"><path d="M41.601 23.5c.029-1.448 0-2.924 0-4.4 0-1.05-.257-2.894 1.512-2.838 1.655.057 1.427 1.817 1.427 2.895 0 1.448-.029 2.895 0 4.371h1.655v-4.342c0-1.05-.228-2.867 1.512-2.895 1.712-.029 1.455 1.816 1.455 2.923 0 1.42-.028 2.867 0 4.314h1.74c.03-1.305 0-2.611 0-3.917 0-1.277.115-2.44-.484-3.434-.913-1.504-3.681-2.072-4.993.142-.2-.17-.314-.567-.828-.936-1.198-.823-2.967-.511-4.708-.511v8.656l1.712-.028zm26.621-3.605c-.085.823-.342 1.504-.77 1.902-1.198 1.107-4.023.823-3.624-3.207.143-1.476 1.084-2.838 2.825-2.356 1.313.369 1.712 1.958 1.57 3.661zm-6.191-.113c.17 2.384 1.854 4.172 4.422 3.916 2.654-.255 3.653-2.554 3.538-4.938-.285-5.478-8.417-5.45-7.96 1.022zm-29.018-3.605c1.683-.312 2.51 1.107 2.596 2.64.086 1.419-.171 3.207-1.826 3.49-1.683.284-2.54-1.05-2.625-2.61-.057-1.732.342-3.207 1.855-3.52zm4.365 3.52c.371-4.513-4.137-6.216-6.705-3.832-.685.624-1.17 1.646-1.255 2.923-.2 2.64 1.17 4.683 3.509 4.91 1.512.17 2.768-.454 3.481-1.305.257-.312.428-.596.6-.994.227-.51.342-1.078.37-1.702zm-15.664-3.378c2.254-.17 3.595.511 3.68 2.696.086 2.27-.97 3.18-3.167 3.18h-.513v-5.876zM20.03 23.5c1.427.086 3.91.143 5.136-.567 1.17-.653 2.026-1.816 2.026-3.69 0-2.894-1.94-4.115-4.337-4.228-.685-.029-2.14-.085-2.796 0L20.03 23.5zm35.381-7.151h4.251c.029-.284.057-1.107-.028-1.334h-5.336c-.2 0-.57-.085-.57.113V23.5h6.048l.03-1.363H55.41v-2.355h4.023v-1.306H55.41v-2.128z" fill="#272727"/><path d="M.856 0h40.716v12.999H39.86V1.703H1.712v38.343H39.86V25.515h1.712v16.234H0V0h.856z" fill="#FFDB48"/></svg>