<svg width="40" height="40" fill="none" xmlns="http://www.w3.org/2000/svg"><path d="M10 7.5h15V10H10V7.5zm0 5h15V15H10v-2.5zm0 5h7.5V20H10v-2.5zM10 30h5v2.5h-5V30zm27.134-5.884l-3.75-3.75a1.25 1.25 0 00-1.768 0L20 31.982V37.5h5.517l11.617-11.616a1.25 1.25 0 000-1.768zM24.483 35H22.5v-1.983l6.25-6.25 1.983 1.983-6.25 6.25zm8.017-8.018L30.517 25l1.983-1.983L34.483 25 32.5 26.982z" fill="#0260E8"/><path d="M15 37.5H7.5A2.503 2.503 0 015 35V5a2.503 2.503 0 012.5-2.5h20A2.503 2.503 0 0130 5v12.5h-2.5V5h-20v30H15v2.5z" fill="#0260E8"/></svg>