<svg width="40" height="40" fill="none" xmlns="http://www.w3.org/2000/svg"><path d="M20 17.5h2.5V20H20v-2.5zm5 0h2.5V20H25v-2.5zm5 0h2.5V20H30v-2.5zm-10 5h2.5V25H20v-2.5zm5 0h2.5V25H25v-2.5zm5 0h2.5V25H30v-2.5zm-10 5h2.5V30H20v-2.5zm5 0h2.5V30H25v-2.5zm5 0h2.5V30H30v-2.5zm-10-15h12.5V15H20v-2.5z" fill="#0260E8"/><path d="M35 7.5H17.5V6.25a2.503 2.503 0 00-2.5-2.5h-5a2.503 2.503 0 00-2.5 2.5V7.5H5A2.503 2.503 0 002.5 10v22.5A2.503 2.503 0 005 35h30a2.503 2.503 0 002.5-2.5V10A2.503 2.503 0 0035 7.5zM10 6.25h5V27.5h-5V6.25zM35 32.5H5V10h2.5v17.5A2.503 2.503 0 0010 30h5a2.503 2.503 0 002.5-2.5V10H35v22.5z" fill="#0260E8"/></svg>