<svg width="34" height="36" viewBox="0 0 34 36" fill="none" xmlns="http://www.w3.org/2000/svg">
<path d="M16.0001 18C20.6025 18 24.3334 14.269 24.3334 9.66665C24.3334 5.06427 20.6025 1.33331 16.0001 1.33331C11.3977 1.33331 7.66675 5.06427 7.66675 9.66665C7.66675 14.269 11.3977 18 16.0001 18Z" stroke="#DEDEDE" stroke-width="2"/>
<path d="M24.3334 34.6666H4.77669C4.30399 34.6668 3.83668 34.5663 3.40576 34.372C2.97485 34.1777 2.59019 33.894 2.27731 33.5396C1.96444 33.1853 1.7305 32.7685 1.59103 32.3168C1.45156 31.8652 1.40974 31.389 1.46835 30.92L2.11835 25.7133C2.26951 24.5037 2.85738 23.3909 3.77141 22.5843C4.68543 21.7777 5.86265 21.3328 7.08169 21.3333H7.66669" stroke="#DEDEDE" stroke-width="2" stroke-linecap="round" stroke-linejoin="round"/>
<path d="M22.6667 24.6666L26.4167 28L32.6667 21.3333" stroke="#DEDEDE" stroke-width="2" stroke-linecap="round" stroke-linejoin="round"/>
</svg>
