<svg width="40" height="40" viewBox="0 0 40 40" fill="none" xmlns="http://www.w3.org/2000/svg">
<path d="M10 7.5H25V10H10V7.5Z" fill="#0260E8"/>
<path d="M10 12.5H25V15H10V12.5Z" fill="#0260E8"/>
<path d="M10 17.5H17.5V20H10V17.5Z" fill="#0260E8"/>
<path d="M10 30H15V32.5H10V30Z" fill="#0260E8"/>
<path d="M37.1338 24.116L33.3838 20.366C33.1493 20.1316 32.8315 20 32.5 20C32.1685 20 31.8507 20.1316 31.6162 20.366L20 31.9822V37.4997H25.5175L37.1338 25.8835C37.3681 25.6491 37.4997 25.3312 37.4997 24.9997C37.4997 24.6683 37.3681 24.3504 37.1338 24.116ZM24.4825 34.9997H22.5V33.0172L28.75 26.7672L30.7325 28.7497L24.4825 34.9997ZM32.5 26.9822L30.5175 24.9997L32.5 23.0172L34.4825 24.9997L32.5 26.9822Z" fill="#0260E8"/>
<path d="M15 37.5H7.5C6.83716 37.4993 6.20166 37.2357 5.73296 36.767C5.26427 36.2983 5.00066 35.6628 5 35V5C5.00066 4.33716 5.26427 3.70166 5.73296 3.23296C6.20166 2.76427 6.83716 2.50066 7.5 2.5H27.5C28.1628 2.50066 28.7983 2.76427 29.267 3.23296C29.7357 3.70166 29.9993 4.33716 30 5V17.5H27.5V5H7.5V35H15V37.5Z" fill="#0260E8"/>
</svg>
