<svg width="40" height="40" viewBox="0 0 40 40" fill="none" xmlns="http://www.w3.org/2000/svg">
<path d="M7.5 26.25V25H5V26.25C5 28.5706 5.92187 30.7962 7.56282 32.4372C9.20376 34.0781 11.4294 35 13.75 35H17.5V32.5H13.75C12.0924 32.5 10.5027 31.8415 9.33058 30.6694C8.15848 29.4973 7.5 27.9076 7.5 26.25Z" fill="#0260E8"/>
<path d="M30 13.75V15H32.5V13.75C32.5 11.4294 31.5781 9.20376 29.9372 7.56282C28.2962 5.92187 26.0706 5 23.75 5H20V7.5H23.75C24.5708 7.5 25.3835 7.66166 26.1418 7.97575C26.9001 8.28984 27.5891 8.75022 28.1694 9.33058C28.7498 9.91095 29.2102 10.5999 29.5242 11.3582C29.8383 12.1165 30 12.9292 30 13.75Z" fill="#0260E8"/>
<path d="M13.75 13.75H6.25C5.25544 13.75 4.30161 14.1451 3.59835 14.8483C2.89509 15.5516 2.5 16.5054 2.5 17.5V20H5V17.5C5 17.1685 5.1317 16.8505 5.36612 16.6161C5.60054 16.3817 5.91848 16.25 6.25 16.25H13.75C14.0815 16.25 14.3995 16.3817 14.6339 16.6161C14.8683 16.8505 15 17.1685 15 17.5V20H17.5V17.5C17.5 16.5054 17.1049 15.5516 16.4017 14.8483C15.6984 14.1451 14.7446 13.75 13.75 13.75Z" fill="#0260E8"/>
<path d="M10 12.5C10.9889 12.5 11.9556 12.2068 12.7778 11.6574C13.6001 11.1079 14.241 10.327 14.6194 9.41342C14.9978 8.49979 15.0969 7.49446 14.9039 6.52455C14.711 5.55465 14.2348 4.66373 13.5355 3.96447C12.8363 3.26521 11.9454 2.789 10.9755 2.59608C10.0055 2.40315 9.00021 2.50217 8.08658 2.8806C7.17295 3.25904 6.39206 3.89991 5.84265 4.72215C5.29324 5.5444 5 6.5111 5 7.5C5 8.82609 5.52678 10.0979 6.46447 11.0355C7.40215 11.9732 8.67392 12.5 10 12.5ZM10 5C10.4945 5 10.9778 5.14662 11.3889 5.42133C11.8 5.69603 12.1205 6.08648 12.3097 6.54329C12.4989 7.00011 12.5484 7.50278 12.452 7.98773C12.3555 8.47268 12.1174 8.91814 11.7678 9.26777C11.4181 9.6174 10.9727 9.8555 10.4877 9.95197C10.0028 10.0484 9.50011 9.99892 9.04329 9.8097C8.58648 9.62048 8.19603 9.30005 7.92133 8.88893C7.64662 8.4778 7.5 7.99446 7.5 7.5C7.5 6.83696 7.76339 6.20108 8.23223 5.73223C8.70107 5.26339 9.33696 5 10 5Z" fill="#0260E8"/>
<path d="M33.75 31.25H26.25C25.2554 31.25 24.3016 31.6451 23.5983 32.3483C22.8951 33.0516 22.5 34.0054 22.5 35V37.5H25V35C25 34.6685 25.1317 34.3505 25.3661 34.1161C25.6005 33.8817 25.9185 33.75 26.25 33.75H33.75C34.0815 33.75 34.3995 33.8817 34.6339 34.1161C34.8683 34.3505 35 34.6685 35 35V37.5H37.5V35C37.5 34.0054 37.1049 33.0516 36.4017 32.3483C35.6984 31.6451 34.7446 31.25 33.75 31.25Z" fill="#0260E8"/>
<path d="M25 25C25 25.9889 25.2932 26.9556 25.8427 27.7779C26.3921 28.6001 27.173 29.241 28.0866 29.6194C29.0002 29.9978 30.0055 30.0969 30.9755 29.9039C31.9454 29.711 32.8363 29.2348 33.5355 28.5355C34.2348 27.8363 34.711 26.9454 34.9039 25.9755C35.0969 25.0055 34.9978 24.0002 34.6194 23.0866C34.241 22.173 33.6001 21.3921 32.7779 20.8427C31.9556 20.2932 30.9889 20 30 20C28.6739 20 27.4021 20.5268 26.4645 21.4645C25.5268 22.4021 25 23.6739 25 25ZM32.5 25C32.5 25.4945 32.3534 25.9778 32.0787 26.3889C31.804 26.8 31.4135 27.1205 30.9567 27.3097C30.4999 27.4989 29.9972 27.5484 29.5123 27.452C29.0273 27.3555 28.5819 27.1174 28.2322 26.7678C27.8826 26.4181 27.6445 25.9727 27.548 25.4877C27.4516 25.0028 27.5011 24.5001 27.6903 24.0433C27.8795 23.5865 28.2 23.196 28.6111 22.9213C29.0222 22.6466 29.5055 22.5 30 22.5C30.663 22.5 31.2989 22.7634 31.7678 23.2322C32.2366 23.7011 32.5 24.337 32.5 25Z" fill="#0260E8"/>
</svg>
