<svg width="40" height="40" viewBox="0 0 40 40" fill="none" xmlns="http://www.w3.org/2000/svg">
<path d="M20 17.5H22.5V20H20V17.5Z" fill="#0260E8"/>
<path d="M25 17.5H27.5V20H25V17.5Z" fill="#0260E8"/>
<path d="M30 17.5H32.5V20H30V17.5Z" fill="#0260E8"/>
<path d="M20 22.5H22.5V25H20V22.5Z" fill="#0260E8"/>
<path d="M25 22.5H27.5V25H25V22.5Z" fill="#0260E8"/>
<path d="M30 22.5H32.5V25H30V22.5Z" fill="#0260E8"/>
<path d="M20 27.5H22.5V30H20V27.5Z" fill="#0260E8"/>
<path d="M25 27.5H27.5V30H25V27.5Z" fill="#0260E8"/>
<path d="M30 27.5H32.5V30H30V27.5Z" fill="#0260E8"/>
<path d="M20 12.5H32.5V15H20V12.5Z" fill="#0260E8"/>
<path d="M35 7.5H17.5V6.25C17.4993 5.58716 17.2357 4.95166 16.767 4.48296C16.2983 4.01427 15.6628 3.75066 15 3.75H10C9.33716 3.75066 8.70166 4.01427 8.23296 4.48296C7.76427 4.95166 7.50066 5.58716 7.5 6.25V7.5H5C4.33716 7.50066 3.70166 7.76427 3.23296 8.23296C2.76427 8.70166 2.50066 9.33716 2.5 10V32.5C2.50066 33.1628 2.76427 33.7983 3.23296 34.267C3.70166 34.7357 4.33716 34.9993 5 35H35C35.6628 34.9993 36.2983 34.7357 36.767 34.267C37.2357 33.7983 37.4993 33.1628 37.5 32.5V10C37.4993 9.33716 37.2357 8.70166 36.767 8.23296C36.2983 7.76427 35.6628 7.50066 35 7.5ZM10 6.25H15V27.5H10V6.25ZM35 32.5H5V10H7.5V27.5C7.50066 28.1628 7.76427 28.7983 8.23296 29.267C8.70166 29.7357 9.33716 29.9993 10 30H15C15.6628 29.9993 16.2983 29.7357 16.767 29.267C17.2357 28.7983 17.4993 28.1628 17.5 27.5V10H35V32.5Z" fill="#0260E8"/>
</svg>
