<svg width="40" height="40" viewBox="0 0 40 40" fill="none" xmlns="http://www.w3.org/2000/svg">
<path d="M32.5 15H25V7.5C24.999 6.50574 24.6036 5.55249 23.9006 4.84945C23.1975 4.1464 22.2443 3.75099 21.25 3.75H18.5837C17.9827 3.75255 17.4025 3.9705 16.9484 4.36428C16.4943 4.75807 16.1964 5.3016 16.1088 5.89625L15.0525 13.2925L10.5813 20H2.5V37.5H28.75C31.0698 37.4974 33.2939 36.5746 34.9343 34.9343C36.5746 33.2939 37.4974 31.0698 37.5 28.75V20C37.4983 18.6744 36.971 17.4036 36.0337 16.4663C35.0964 15.529 33.8256 15.0017 32.5 15ZM10 35H5V22.5H10V35ZM35 28.75C34.998 30.407 34.3389 31.9956 33.1672 33.1672C31.9956 34.3389 30.407 34.998 28.75 35H12.5V21.6287L17.4475 14.2075L18.585 6.25H21.25C21.5815 6.25 21.8995 6.3817 22.1339 6.61612C22.3683 6.85054 22.5 7.16848 22.5 7.5V17.5H32.5C33.1628 17.5007 33.7983 17.7643 34.267 18.233C34.7357 18.7017 34.9993 19.3372 35 20V28.75Z" fill="#0260E8"/>
</svg>
