<svg width="30" height="33" viewBox="0 0 30 33" fill="none" xmlns="http://www.w3.org/2000/svg">
<path d="M29.1667 18.4998C29.1659 15.4932 28.2085 12.5647 26.4331 10.1382C24.6577 7.71167 22.1562 5.91296 19.2908 5.00231C16.4253 4.09166 13.3444 4.1163 10.4939 5.07266C7.64338 6.02903 5.17105 7.86752 3.43465 10.3221C1.69825 12.7767 0.78783 15.7201 0.835128 18.7264C0.882425 21.7327 1.88498 24.646 3.69774 27.0448C5.5105 29.4436 8.03944 31.2034 10.9186 32.0696C13.7978 32.9358 18.5446 32.8635 21.38 31.8632C21.4091 31.1772 21.4091 30.6983 21.4091 30.0491C21.4091 30.0003 21.4091 29.5457 21.4091 29.5457C19.151 30.8505 15.95 30.4184 13.3678 30.0532C10.7855 29.688 8.40005 28.468 6.59234 26.5882C4.78462 24.7084 3.65889 22.2771 3.3949 19.6825C3.1309 17.0879 3.74386 14.4797 5.1359 12.2743C6.52794 10.0689 8.61878 8.3935 11.0746 7.51564C13.5304 6.63778 16.2095 6.60807 18.6841 7.43126C21.1588 8.25445 23.2863 9.88307 24.7269 12.0571C26.1675 14.231 26.8381 16.825 26.6317 19.4248C27.4865 19.5505 28.3095 19.8379 29.0567 20.2715C29.13 19.6838 29.1668 19.0921 29.1667 18.4998ZM16.2384 10.4132C16.1952 10.0994 16.0345 9.81375 15.7889 9.61389C15.5432 9.41403 15.2308 9.31487 14.9148 9.33646C14.5989 9.35805 14.3029 9.49877 14.0867 9.73018C13.8704 9.9616 13.7501 10.2665 13.75 10.5832V18.0832L13.7617 18.2532C13.8049 18.5669 13.9655 18.8526 14.2112 19.0525C14.4569 19.2523 14.7693 19.3515 15.0852 19.3299C15.4012 19.3083 15.6972 19.1676 15.9134 18.9362C16.1296 18.7047 16.2499 18.3999 16.25 18.0832V10.5832L16.2384 10.4132ZM27.05 4.62317L26.9117 4.52317C26.6431 4.35718 26.3216 4.299 26.0119 4.36032C25.7021 4.42164 25.427 4.59793 25.2419 4.85374C25.0568 5.10956 24.9754 5.42596 25.014 5.73936C25.0526 6.05275 25.2084 6.33993 25.45 6.54317L27.3817 8.1515L27.5184 8.2515C27.7872 8.42039 28.1102 8.48068 28.4218 8.42013C28.7334 8.35957 29.0104 8.18272 29.1964 7.92546C29.3824 7.6682 29.4635 7.3498 29.4233 7.03489C29.3832 6.71999 29.2247 6.43216 28.98 6.22984L27.05 4.62317ZM20 1.4165C20 1.08498 19.8683 0.767041 19.6339 0.53262C19.3995 0.2982 19.0816 0.166504 18.75 0.166504H11.25L11.08 0.178171C10.7663 0.22134 10.4806 0.381994 10.2808 0.627673C10.0809 0.873351 9.98174 1.18573 10.0033 1.5017C10.0249 1.81767 10.1656 2.11367 10.3971 2.32988C10.6285 2.5461 10.9333 2.66641 11.25 2.6665H18.75L18.92 2.65484C19.2193 2.61376 19.4936 2.4657 19.6921 2.23805C19.8906 2.01041 20 1.71857 20 1.4165Z" fill="#0260E8"/>
<path d="M27.3817 22.2415L27.37 22.0749C27.3453 21.8925 27.2805 21.7161 27.1804 21.5617C27.0803 21.4072 26.9473 21.2768 26.791 21.1796C26.6346 21.0825 26.4588 21.0211 26.2759 20.9998C26.0931 20.9786 25.9079 20.9979 25.7334 21.0565L23.23 21.8965L23.0734 21.9615C22.8026 22.0957 22.5895 22.3234 22.4737 22.6026C22.3579 22.8817 22.3471 23.1934 22.4434 23.4799L22.5084 23.6365C22.6425 23.9073 22.8703 24.1204 23.1494 24.2362C23.4286 24.352 23.7402 24.3628 24.0267 24.2665L24.88 23.9782V31.4032L24.8917 31.5732C24.9318 31.8896 25.0914 32.1788 25.3378 32.3814C25.5842 32.584 25.8987 32.6847 26.2169 32.663C26.5352 32.6413 26.833 32.4987 27.0496 32.2645C27.2661 32.0303 27.385 31.7222 27.3817 31.4032V22.2415Z" fill="#0260E8"/>
</svg>
