<svg width="40" height="40" fill="none" xmlns="http://www.w3.org/2000/svg"><path d="M11.25 37.5a1.875 1.875 0 100-3.75 1.875 1.875 0 000 3.75zm1.25-6.25H10v-5h2.5a2.5 2.5 0 000-5H10a2.503 2.503 0 00-2.5 2.5v.625H5v-.625a5.006 5.006 0 015-5h2.5a5 5 0 110 10v2.5z" fill="#DEDEDE"/><path d="M34.625 11.625l-8.75-8.75A1.135 1.135 0 0025 2.5H12.5A2.508 2.508 0 0010 5v10h2.5V5h10v7.5A2.507 2.507 0 0025 15h7.5v20h-15v2.5h15A2.508 2.508 0 0035 35V12.5a1.137 1.137 0 00-.375-.875zM25 12.5v-7l7 7h-7z" fill="#DEDEDE"/></svg>