<svg width="22" height="22" fill="none" xmlns="http://www.w3.org/2000/svg"><path d="M16.487 16.798c.42.252.899.387 1.388.39a2.753 2.753 0 002.75-2.75 2.713 2.713 0 00-.103-.704l-1.675 1.676a1.374 1.374 0 01-2.252-1.498 1.38 1.38 0 01.308-.447l1.675-1.675a2.716 2.716 0 00-.703-.102 2.753 2.753 0 00-2.75 2.75c.002.49.137.969.39 1.388l-3.828 3.826.973.973 3.827-3.827z" fill="#FFDB48"/><path fill-rule="evenodd" clip-rule="evenodd" d="M17.875 2.75h-2.75V1.375H13.75V2.75h-5.5V1.375H6.875V2.75h-2.75A1.375 1.375 0 002.75 4.125v13.75a1.375 1.375 0 001.375 1.375h5.5v-1.375h-5.5V4.125h2.75V5.5H8.25V4.125h5.5V5.5h1.375V4.125h2.75v5.5h1.375v-5.5a1.375 1.375 0 00-1.375-1.375z" fill="#FFDB48"/></svg>