<svg width="22" height="22" fill="none" xmlns="http://www.w3.org/2000/svg"><path d="M5.5 4.125h8.25V5.5H5.5V4.125zm0 2.75h8.25V8.25H5.5V6.875zm0 2.75h4.125V11H5.5V9.625zm0 6.875h2.75v1.375H5.5V16.5zm14.924-3.236L18.36 11.2a.688.688 0 00-.972 0L11 17.591v3.034h3.035l6.389-6.389a.688.688 0 000-.972zm-6.959 5.986h-1.09v-1.09l3.438-3.438 1.09 1.09-3.438 3.438zm4.41-4.41l-1.09-1.09 1.09-1.09 1.09 1.09-1.09 1.09z" fill="#FFDB48"/><path d="M8.25 20.625H4.125A1.376 1.376 0 012.75 19.25V2.75a1.376 1.376 0 011.375-1.375h11A1.376 1.376 0 0116.5 2.75v6.875h-1.375V2.75h-11v16.5H8.25v1.375z" fill="#FFDB48"/></svg>