<svg width="40" height="40" fill="none" xmlns="http://www.w3.org/2000/svg"><path d="M7.5 26.25V25H5v1.25A8.75 8.75 0 0013.75 35h3.75v-2.5h-3.75a6.25 6.25 0 01-6.25-6.25zM30 13.75V15h2.5v-1.25A8.75 8.75 0 0023.75 5H20v2.5h3.75A6.25 6.25 0 0130 13.75zm-16.25 0h-7.5A3.75 3.75 0 002.5 17.5V20H5v-2.5a1.25 1.25 0 011.25-1.25h7.5A1.25 1.25 0 0115 17.5V20h2.5v-2.5a3.75 3.75 0 00-3.75-3.75zM10 12.5a5 5 0 100-10 5 5 0 000 10zM10 5a2.5 2.5 0 110 5 2.5 2.5 0 010-5zm23.75 26.25h-7.5A3.75 3.75 0 0022.5 35v2.5H25V35a1.25 1.25 0 011.25-1.25h7.5A1.25 1.25 0 0135 35v2.5h2.5V35a3.75 3.75 0 00-3.75-3.75zM25 25a5 5 0 1010 0 5 5 0 00-10 0zm7.5 0a2.5 2.5 0 11-5 0 2.5 2.5 0 015 0z" fill="#0260E8"/></svg>