<svg width="30" height="33" fill="none" xmlns="http://www.w3.org/2000/svg"><path d="M29.167 18.5a14.167 14.167 0 10-18.248 13.57c2.879.866 7.626.794 10.461-.207.03-.686.03-1.165.03-1.814v-.503c-2.259 1.305-5.46.872-8.042.507a11.667 11.667 0 1113.264-10.628 6.804 6.804 0 012.425.846c.073-.587.11-1.179.11-1.771zm-12.929-8.087a1.25 1.25 0 00-2.488.17v7.5l.012.17a1.25 1.25 0 002.488-.17v-7.5l-.012-.17zm10.812-5.79l-.138-.1a1.25 1.25 0 00-1.462 2.02l1.932 1.609.136.1A1.25 1.25 0 0028.98 6.23l-1.93-1.607zM20 1.416a1.25 1.25 0 00-1.25-1.25h-7.5l-.17.012a1.25 1.25 0 00.17 2.489h7.5l.17-.012A1.25 1.25 0 0020 1.417z" fill="#0260E8"/><path d="M27.382 22.241l-.012-.166a1.256 1.256 0 00-.579-.895 1.25 1.25 0 00-1.058-.123l-2.503.84-.157.065a1.25 1.25 0 00-.63 1.518l.065.157a1.25 1.25 0 001.519.63l.853-.289v7.425l.012.17a1.25 1.25 0 002.49-.17v-9.162z" fill="#0260E8"/></svg>